<?xml version="1.0" encoding="UTF-8" standalone="no"?>
<!-- Created with Inkscape (http://www.inkscape.org/) -->

<svg
   width="405.16882mm"
   height="405.33777mm"
   viewBox="0 0 405.16882 405.33776"
   version="1.1"
   id="svg1"
   xml:space="preserve"
   xmlns="http://www.w3.org/2000/svg"
   xmlns:svg="http://www.w3.org/2000/svg"><defs
     id="defs1" /><g
     id="layer1"
     transform="translate(612.76524,167.41157)"><path
       id="rect12"
       style="fill:#ffffff;fill-opacity:1;stroke:none;stroke-width:1"
       d="m -417.40668,-167.2803 c -16.51753,0.5925 -32.9908,3.192 -48.96084,7.8197 -12.06459,3.4959 -22.41434,7.5402 -33.94108,13.2627 -19.69444,9.7772 -37.01548,22.2795 -52.96576,38.2297 -18.00461,18.004599 -31.83002,38.054299 -42.14471,61.118802 -14.97968,33.4957 -20.43945,71.2369 -15.66828,108.30758 8.35976,64.953188 47.94368,121.870158 106.47307,153.095558 2.52349,1.34628 5.73353,2.98236 7.13393,3.63544 4.48915,2.09354 5.86465,2.71973 5.97432,2.71973 0.059,0 0.85956,0.34335 1.77922,0.76326 2.83042,1.29235 11.77324,4.67105 16.09204,6.07973 24.98385,8.14906 49.48621,11.32111 75.77367,9.80974 23.41382,-1.34616 46.09348,-6.75065 68.42424,-16.30546 3.64054,-1.5577 15.15611,-7.24886 17.64337,-8.71937 1.07292,-0.63433 1.99348,-1.1529 2.04535,-1.1529 0.15051,0 5.24248,-3.14308 9.39788,-5.80068 5.44888,-3.48485 14.70113,-10.21264 19.06757,-13.8653 13.74256,-11.4961 26.54112,-25.27485 36.44274,-39.23275 2.64391,-3.727 3.3376,-4.76569 6.90449,-10.33942 4.59486,-7.18007 10.72253,-18.92129 14.30713,-27.41331 8.62954,-20.443628 13.45919,-39.944338 15.54324,-62.761028 0.57734,-6.32092 0.66532,-25.64562 0.14469,-31.74892 -1.57426,-18.455 -4.70513,-33.739 -10.32546,-50.4032 -9.34529,-27.708603 -25.47212,-54.010703 -46.23439,-75.406202 -5.99551,-6.1784 -13.65155,-13.2215 -17.97565,-16.5365 -0.75926,-0.5821 -2.61692,-2.0352 -4.12843,-3.2292 -13.8837,-10.9669 -31.95156,-21.1838 -49.97628,-28.2598 -25.64521,-10.0676 -53.29686,-14.6555 -80.82607,-13.6679 z m 5.68389,11.9517 h 2.64635 v 1.8149 c 0,0.9984 0.0754,2.3676 0.16795,3.0427 l 0.16846,1.2278 h -3.87263 -3.87211 l -10e-4,1.1245 c -5e-4,0.6184 0.24818,5.6916 0.55294,11.2737 0.30475,5.582 0.45412,10.2403 0.33176,10.3519 -0.12235,0.1116 -1.60476,0.2668 -3.29437,0.3446 l -3.07216,0.1411 -0.1509,-1.8944 c -0.0831,-1.042 -0.36519,-6.1658 -0.62683,-11.3864 l -0.47543,-9.492 -2.12235,0.1732 c -1.16714,0.095 -2.9255,0.2461 -3.90777,0.3353 l -1.78594,0.1628 -0.0475,-2.4195 c -0.026,-1.3306 -0.0557,-2.6869 -0.0661,-3.0143 -0.018,-0.5671 0.1253,-0.61 3.0241,-0.8976 4.00446,-0.3974 13.07299,-0.8883 16.40365,-0.8883 z m 11.17038,0.2057 2.55075,0.1752 c 4.66386,0.3205 14.81216,1.3827 15.03784,1.574 0.0733,0.062 -0.45288,5.5461 -0.54054,5.6338 -0.04,0.04 -2.47513,-0.1841 -5.41104,-0.4982 -2.93591,-0.314 -5.38658,-0.5197 -5.44618,-0.4573 -0.159,0.1666 -0.66201,5.1207 -0.5333,5.2524 0.0602,0.062 2.16228,0.3304 4.67155,0.5969 2.50926,0.2666 4.80484,0.5396 5.1015,0.6066 0.51784,0.1171 0.53021,0.2252 0.30489,2.7105 -0.12909,1.4238 -0.27922,2.635 -0.33331,2.6913 -0.0912,0.095 -7.25354,-0.6073 -9.39426,-0.9209 l -0.9462,-0.1385 -0.30437,3.1083 c -0.1675,1.7096 -0.25011,3.1631 -0.18345,3.2298 0.10593,0.1059 10.28318,1.342 11.19053,1.3591 0.34047,0.01 0.31719,0.9761 -0.10645,4.4385 -0.15933,1.3021 -0.0358,1.2798 -3.94136,0.71 -3.09712,-0.4519 -11.05531,-1.173 -12.94443,-1.173 -0.79253,0 -1.44473,-0.0322 -1.47485,-0.0719 v -5e-4 l -5.2e-4,-5e-4 v -5e-4 -5e-4 -5e-4 c 0,-0.041 0.29836,-3.3447 0.66353,-7.3422 0.36518,-3.9975 0.72847,-7.9822 0.80719,-8.8553 0.0787,-0.8732 0.24987,-2.659 0.38033,-3.9687 0.13046,-1.3097 0.30622,-3.2148 0.39016,-4.2334 0.084,-1.0187 0.2223,-2.4309 0.30748,-3.1383 z m -36.56986,1.8872 c 0,0.07 -1.19967,4.0495 -2.66547,8.8439 -1.4658,4.7944 -2.67853,8.9085 -2.69493,9.1426 -0.0164,0.2341 0.48939,2.8955 1.12345,5.9144 0.63405,3.0188 1.09857,5.5428 1.03249,5.6089 -0.0661,0.066 -1.30696,0.3717 -2.75745,0.6791 -1.45049,0.3074 -2.83869,0.617 -3.08457,0.6878 -0.33227,0.096 -0.51344,-0.113 -0.70642,-0.8119 -0.14281,-0.5172 -0.70119,-3.0631 -1.24075,-5.658 l -0.98082,-4.7181 -6.07508,-7.3396 c -3.34109,-4.0368 -6.02018,-7.3945 -5.95364,-7.461 0.15457,-0.1546 6.2185,-1.6893 6.67453,-1.6893 0.328,0 3.00361,3.604 6.34018,8.5411 l 1.57045,2.3238 0.4439,-2.5884 c 0.24416,-1.4236 0.77635,-4.386 1.18287,-6.5831 l 0.73949,-3.9946 3.52588,-0.5121 c 1.93924,-0.2816 3.52589,-0.4551 3.52589,-0.3855 z m 75.00162,4.5527 c 2.99308,0.0839 6.12132,0.8177 8.52558,2.1043 2.41781,1.2938 2.38247,1.1525 0.94671,3.763 -0.69452,1.2628 -1.35455,2.2975 -1.46658,2.2996 -0.11203,0 -0.64781,-0.2749 -1.19062,-0.6159 -2.00545,-1.2601 -4.0151,-1.8389 -6.41046,-1.8454 -2.68074,-0.01 -3.73324,0.3888 -5.54953,2.0877 -2.87595,2.6901 -3.97148,7.9305 -2.36989,11.3378 1.42805,3.038 4.54715,4.7554 9.24233,5.0891 l 2.24896,0.1597 -0.1757,2.2805 c -0.0965,1.2541 -0.18577,2.4293 -0.19844,2.6112 -0.0303,0.4348 -4.34845,0.403 -6.37273,-0.047 -4.94092,-1.0981 -9.03008,-3.6905 -10.8071,-6.8508 -1.24083,-2.2068 -1.69277,-3.9612 -1.70842,-6.6316 -0.043,-7.3401 4.02472,-13.3722 10.23039,-15.1707 1.51284,-0.4384 3.25965,-0.6219 5.0555,-0.5715 z m -113.16467,4.777 3.93051,11.0665 c 2.16186,6.0866 4.02326,11.0092 4.13618,10.9394 0.61796,-0.3819 9.8881,-3.5376 10.20558,-3.4742 0.31509,0.063 1.28117,2.2853 2.00453,4.6105 0.1647,0.5294 -0.12492,0.6628 -4.46949,2.0604 -3.76544,1.2114 -9.15871,3.1474 -11.83597,4.2488 -0.33057,0.136 -0.52864,0.0163 -0.71676,-0.433 -0.25019,-0.5978 -0.92564,-2.4788 -6.63577,-18.4806 -1.42802,-4.0018 -2.67213,-7.467 -2.76469,-7.7003 -0.16466,-0.415 1.35548,-1.1529 5.05293,-2.4531 z m 135.02277,1.9492 c 0.33679,-0.0153 0.99577,0.2372 2.59674,0.8795 1.48336,0.5951 2.85978,1.1737 3.05873,1.2863 0.28215,0.1597 -0.15728,1.3259 -1.99678,5.2989 -1.29714,2.8016 -2.358,5.1531 -2.358,5.2255 0,0.072 0.10663,0.1312 0.2372,0.1312 0.23877,0 5.0697,2.2385 7.60729,3.5249 l 1.3627,0.6909 0.66921,-1.3803 c 0.36817,-0.759 1.401,-2.9871 2.29547,-4.9516 0.89448,-1.9646 1.71256,-3.6616 1.81798,-3.7708 0.21637,-0.2242 5.64953,2.4972 5.78259,2.8964 0.0653,0.1957 -5.87361,13.1623 -11.64012,25.4145 -0.15411,0.3274 -0.40989,0.5913 -0.56844,0.587 -0.15854,0 -1.44633,-0.6364 -2.86184,-1.405 -1.41552,-0.7685 -2.63785,-1.4617 -2.71663,-1.5405 -0.0788,-0.079 0.92304,-2.355 2.22674,-5.0586 1.3037,-2.7036 2.40748,-5.1161 2.45256,-5.3609 0.0627,-0.3409 -0.94106,-0.9316 -4.28346,-2.5198 -2.40109,-1.1408 -4.46218,-2.0794 -4.58008,-2.0862 -0.11791,-0.01 -1.34567,2.3365 -2.72851,5.2075 -1.38284,2.8711 -2.55221,5.2581 -2.59829,5.3041 -0.0461,0.046 -1.46058,-0.4676 -3.14348,-1.1411 -2.84923,-1.1402 -3.04461,-1.2636 -2.83445,-1.7978 0.12413,-0.3156 1.07028,-2.3361 2.10219,-4.4902 1.03192,-2.1541 1.87637,-3.9577 1.87637,-4.008 0,-0.05 0.52803,-1.2049 1.17358,-2.5657 0.64554,-1.3609 2.34218,-4.975 3.77031,-8.031 1.42813,-3.0559 2.72766,-5.7776 2.88819,-6.0488 0.10396,-0.1755 0.19015,-0.2812 0.39223,-0.2904 z m -155.69127,8.5917 c 5.52223,-0.01 9.91238,3.0454 12.92582,8.9922 1.51531,2.9903 2.12232,7.328 1.43971,10.2888 -1.45814,6.3249 -8.87614,11.2837 -15.46211,10.3363 -3.12418,-0.4494 -6.29496,-2.3072 -8.50129,-4.9821 -3.12367,-3.787 -4.61391,-8.5101 -4.06745,-12.8902 0.81315,-6.5178 6.88187,-11.7338 13.66532,-11.745 z m -1.56735,5.8167 c -1.17559,0.012 -2.21015,0.4624 -3.44217,1.4082 -2.66987,2.0497 -2.92533,5.8587 -0.6997,10.4257 0.88643,1.819 2.95283,4.2382 4.36718,5.1124 2.00702,1.2404 4.13859,1.3716 6.08025,0.3741 3.70611,-1.904 4.31983,-6.2242 1.61437,-11.3652 -1.18421,-2.2502 -3.92355,-4.9584 -5.57847,-5.5154 -0.88014,-0.2963 -1.63611,-0.447 -2.34146,-0.4398 z m 189.78945,2.249 c 0.19477,-0.0164 1.61661,0.8005 3.23236,1.8603 2.54028,1.6662 3.018,2.0846 2.94297,2.5782 -0.0492,0.324 -0.39675,3.5066 -0.77204,7.0719 -0.609,5.7856 -1.65187,12.5599 -2.14302,13.922099 -0.28794,0.7987 -0.0178,0.4369 2.59157,-3.474199 2.78268,-4.1709 8.39404,-11.7708 8.69094,-11.7708 0.16968,0 4.01031,2.8684 4.57543,3.4173 0.16773,0.1629 -15.39185,21.950399 -16.60932,23.257499 -0.26488,0.2843 -0.82242,-0.0511 -3.00912,-1.8123 -1.47631,-1.1886 -2.68407,-2.3348 -2.68407,-2.5471 0,-0.4834 1.19535,-10.083099 1.74098,-13.980999 0.22407,-1.6007 0.63926,-4.0903 0.92294,-5.532 0.28369,-1.4416 0.47976,-2.657 0.43563,-2.7011 -0.0441,-0.044 -1.42083,1.8496 -3.05925,4.2085 -5.40554,7.7826 -8.37013,11.810399 -8.70024,11.819899 -0.34818,0.01 -5.09938,-2.943599 -5.09219,-3.165699 0.002,-0.073 0.66419,-1.0247 1.47122,-2.1161 0.80704,-1.0914 2.07511,-2.8178 2.8174,-3.8365 0.74229,-1.0186 2.44166,-3.3409 3.77652,-5.1599 1.33485,-1.819 3.8251,-5.2405 5.53402,-7.6041 1.70892,-2.3636 3.20406,-4.3578 3.32228,-4.4308 0.004,-0.002 0.009,-0.004 0.015,-0.004 z m -214.58639,9.5302 c 2.16145,0 2.69409,0.088 3.80236,0.6537 1.60918,0.8218 3.4751,2.8603 4.36355,4.7661 0.55123,1.1823 0.67852,1.8521 0.67696,3.5719 -0.002,1.8332 -0.11442,2.3493 -0.84077,3.8535 -0.88574,1.8342 -3.35096,4.741299 -4.93665,5.821299 -0.51987,0.3541 -0.94623,0.7182 -0.94723,0.8093 -9.9e-4,0.091 1.31267,1.8084 2.9192,3.8163 1.60652,2.0079 2.88644,3.7919 2.84427,3.9646 -0.0627,0.2566 -4.59195,4.3753 -4.78213,4.3486 -0.0313,0 -1.02616,-1.2248 -2.21072,-2.712 -2.63389,-3.3068 -11.10079,-13.788199 -13.60796,-16.845499 -1.00813,-1.2294 -1.83296,-2.375 -1.83296,-2.5461 0,-0.3946 4.44097,-4.6584 6.50606,-6.2466 0.86008,-0.6614 2.4567,-1.6637 3.54811,-2.2268 1.8915,-0.9758 2.10201,-1.0239 4.49791,-1.0283 z m 214.70938,0.1281 c -0.0728,0 -0.13229,0.06 -0.13229,0.1323 0,0.073 0.0595,0.1323 0.13229,0.1323 0.0728,0 0.13229,-0.06 0.13229,-0.1323 0,-0.073 -0.0595,-0.1323 -0.13229,-0.1323 z m -104.88921,1.1829 c 13.59628,-0.1545 27.20862,1.4745 40.06629,4.8958 6.38731,1.6996 15.30356,4.7491 20.10834,6.8776 0.58209,0.2578 2.07037,0.918 3.30729,1.4671 3.31604,1.471899 8.53188,4.111399 11.24479,5.690099 1.30968,0.7621 2.73843,1.5906 3.175,1.8412 14.67169,8.4196 30.43231,22.2116 41.57989,36.3859 6.90239,8.7765 12.26619,17.377903 17.27698,27.705803 12.69057,26.157 17.4076,55.8376 13.51287,85.02586 -6.17839,46.302718 -33.56418,86.866478 -74.52723,110.389638 -18.33999,10.5318 -38.48206,16.84567 -60.54876,18.98024 -3.84597,0.37203 -16.88656,0.69456 -20.10833,0.49713 -13.5135,-0.8281 -23.42647,-2.44235 -34.66042,-5.64359 -13.43426,-3.82824 -27.01862,-9.91994 -38.89375,-17.44131 -22.97839,-14.55387 -41.93561,-35.50778 -54.08042,-59.77775 -11.31683,-22.615328 -16.70785,-47.772078 -15.63677,-72.964018 0.81712,-19.219 5.00441,-37.4765 12.46797,-54.3605 1.26742,-2.8672 5.48699,-11.3258 6.26938,-12.5677 0.3667,-0.5821 1.02284,-1.7132 1.4578,-2.5136 1.32566,-2.4393 5.10218,-8.2603 7.70444,-11.874703 9.09954,-12.6386 19.60128,-23.3616 32.02802,-32.7044 14.45224,-10.8655 30.81488,-19.033899 48.28645,-24.103999 12.79367,-3.7127 26.37389,-5.6504 39.97017,-5.8048 z m -111.00924,4.6121 c -1.29527,-0.038 -2.76491,0.6513 -4.2969,2.0479 l -1.11931,1.0207 2.53421,3.1088 c 1.39367,1.7099 2.61478,3.1083 2.71405,3.1083 0.0993,0 0.47529,-0.1984 0.83509,-0.4413 1.04383,-0.7048 2.41683,-2.2638 2.80758,-3.1879 0.75495,-1.7853 0.31927,-3.3276 -1.35547,-4.7981 -0.62777,-0.5512 -1.34209,-0.8356 -2.11925,-0.8584 z m 244.213,6.6404 c 0.14942,0 1.27222,1.0054 2.49494,2.2345 l 2.22312,2.234999 -3.3476,3.5197 c -1.84115,1.936 -6.36397,6.6096 -10.05107,10.3859 l -6.70398,6.8663 -2.29805,-2.2061 c -1.26386,-1.2134 -2.29754,-2.3241 -2.29754,-2.4681 0,-0.144 1.51036,-1.8245 3.3569,-3.7341 11.2458,-11.63 16.3843,-16.833099 16.62328,-16.833099 z m 10.62674,17.843399 c 3.42713,0.1679 6.65786,1.6786 9.55187,4.4876 2.58231,2.5064 5.41292,7.123 5.01055,8.1716 -0.10937,0.285 -2.1409,1.2681 -4.59559,2.2236 -0.16807,0.065 -0.44888,-0.3201 -0.62735,-0.8609 -0.94891,-2.8752 -3.43435,-5.746 -5.9862,-6.9143 -3.07481,-1.4076 -6.93753,-0.4102 -9.9167,2.5605 -2.22557,2.2192 -2.73758,3.3576 -2.74144,6.0906 -0.003,2.053 0.0737,2.3913 0.88367,3.8845 0.78489,1.4471 3.21708,4.1675 4.65036,5.2018 0.50301,0.363 0.50269,0.3769 -0.0134,1.033 -0.75764,0.9632 -2.94305,3.3754 -3.05098,3.3677 -0.0505,0 -0.62724,-0.4003 -1.28209,-0.8816 -0.65484,-0.4813 -2.05587,-1.8019 -3.11299,-2.9347 -3.95762,-4.2409 -5.64461,-9.6247 -4.44366,-14.1795 1.35089,-5.1235 6.55001,-9.8026 12.18686,-10.9683 1.18081,-0.2442 2.34475,-0.3376 3.48712,-0.2816 z m -292.54442,11.1425 c 1.64026,-7e-4 2.21379,0.1209 3.3073,0.7017 2.77157,1.4719 4.11865,3.4788 4.30723,6.4172 l 0.12299,1.9182 1.27692,-0.3746 c 0.99741,-0.2924 1.61286,-0.3133 2.81172,-0.0967 2.55676,0.4622 10.41925,3.0226 10.29291,3.3518 -0.0628,0.1637 -0.9278,1.4444 -1.92237,2.8458 -2.11046,2.9736 -1.44717,2.8708 -6.89932,1.0661 -3.7527,-1.2422 -4.94213,-1.3892 -6.15466,-0.7622 -0.79507,0.4111 -2.48322,2.6105 -2.33319,3.0396 0.0468,0.1339 2.03905,1.4982 4.42712,3.0318 2.38807,1.5336 4.39369,2.8403 4.45709,2.9037 0.13387,0.1339 -3.17205,5.715603 -3.37292,5.694803 -0.0739,-0.01 -0.37248,-0.1746 -0.66352,-0.3711 v 5e-4 c -0.29104,-0.1965 -4.16057,-2.7061 -8.59896,-5.576903 -4.43839,-2.8707 -9.51949,-6.1643 -11.29079,-7.3189 l -3.22047,-2.0991 0.40566,-0.9751 c 1.1979,-2.881 5.05959,-8.7502 7.01766,-10.6661 2.17467,-2.128 3.50216,-2.7293 6.0296,-2.7305 z m 127.84595,0.7162 c -1.86693,-0.0771 -3.92409,0.0247 -5.97742,0.3126 -7.81698,1.0963 -15.33469,3.7581 -26.2418,9.2925 -6.97507,3.5392 -13.29507,6.4657 -13.96349,6.4657 -0.20038,0 -0.69291,-0.7441 -1.09503,-1.6536 -0.40213,-0.9095 -0.9965,-2.249 -1.32085,-2.9766 -0.32436,-0.7276 -1.16012,-2.6623 -1.85673,-4.2994 l -1.26659,-2.9766 h -12.68346 -12.68398 l 0.51831,0.8599 c 0.65739,1.0903 5.64973,9.5202 5.8043,9.8009 0.0635,0.1153 -0.46014,0.8808 -1.16376,1.7012 -0.70363,0.8204 -1.72478,2.0854 -2.26911,2.8112 l -0.9896,1.3198 0.7059,0.9478 c 0.70447,0.9457 3.64323,4.759503 8.68112,11.266503 1.46465,1.8918 2.8972,3.7513 3.18379,4.1326 3.12285,4.1549 6.34013,8.1705 6.54637,8.1705 1.0555,0 6.40782,-0.9688 8.79171,-1.5911 5.75137,-1.5015 9.38962,-2.9202 16.93333,-6.6037 5.02994,-2.4562 7.166,-3.4469 7.43159,-3.4469 0.0887,0 0.53622,-0.1741 0.99477,-0.387 1.66539,-0.7731 5.30473,-2.0133 8.13025,-2.7704 l 2.89027,-0.7741 v 7.7737 7.7737 l 0.94258,0.9162 c 2.35832,2.2904 8.14484,4.0039 17.57825,5.2064 7.23156,0.9218 14.89653,1.1824 22.75417,0.7731 v -5e-4 c 14.8677,-0.7745 24.40564,-3.1227 26.80095,-6.5981 0.39867,-0.5784 0.45113,-1.5188 0.45113,-8.1194 v -7.4646 l 1.91823,0.5219 c 5.67873,1.5459 12.3612,4.1047 17.92552,6.8636 6.29869,3.1229 9.03259,4.2276 13.99398,5.655 2.47493,0.712 7.8758,1.8283 10.22728,2.1136 l 1.3348,0.1617 2.63395,-3.4726 c 1.44857,-1.9102 3.79945,-4.977 5.22449,-6.8151 1.42504,-1.8381 3.03238,-3.9225 3.57187,-4.6318 0.53949,-0.7093 1.54442,-2.019 2.23294,-2.9104 0.68853,-0.8915 2.12859,-2.758503 3.20032,-4.149103 l 1.94872,-2.528 -1.42989,-1.8376 c -0.7864,-1.0106 -1.77999,-2.2003 -2.20813,-2.6438 -0.42815,-0.4435 -0.77825,-0.935 -0.77825,-1.0924 0,-0.315 3.04581,-5.6526 5.0705,-8.8853 l 1.28622,-2.0531 -12.75684,0.0687 -12.75685,0.0693 -2.5864,5.7924 c -1.4225,3.186 -2.64408,5.8506 -2.71456,5.9211 -0.27013,0.2701 -4.80604,-1.7711 -12.18686,-5.4834 -10.18249,-5.1216 -15.94587,-7.4595 -22.48958,-9.124 -11.64503,-2.9622 -21.03438,-1.1257 -21.03438,4.1145 0,2.337 1.98224,3.5621 9.12813,5.641 6.19862,1.8033 8.19698,2.6683 9.85573,4.2659 1.39362,1.3423 1.57029,1.788 1.4118,3.5569 -0.18937,2.1136 -4.68699,4.2179 -12.08454,5.6544 -14.46804,2.809603 -35.04976,2.479303 -47.99862,-0.77 -6.22039,-1.5609 -8.98916,-3.4816 -8.65115,-6.0017 0.37404,-2.7886 3.45508,-4.5422 12.22303,-6.9572 6.28634,-1.7314 8.69546,-3.5255 8.21448,-6.1174 -0.29075,-1.5668 -2.19231,-3.2639 -4.51652,-4.0303 -1.29256,-0.4262 -2.96947,-0.682 -4.83639,-0.7591 z m -128.82418,5.811 c -0.80329,0.0025 -1.60364,0.2952 -2.26084,0.9116 -0.938,0.8797 -2.65359,3.4496 -2.53318,3.7946 0.0459,0.1315 1.45293,1.1341 3.12642,2.2277 l 3.04271,1.988 0.45682,-0.5875 c 0.2514,-0.3235 0.75659,-1.1936 1.12241,-1.9332 1.00149,-2.0246 1.0836,-2.809 0.43512,-4.1486 -0.70394,-1.4541 -2.05065,-2.2567 -3.38946,-2.2526 z m 190.68448,4.1832 1.25677,0.4661 1.25678,0.4662 0.0765,2.9026 0.0765,2.9027 1.04283,-2.1642 c 0.57363,-1.1903 1.1667,-2.2405 1.31826,-2.3342 0.29016,-0.1793 2.82019,0.5668 3.02049,0.8909 0.0642,0.1038 -0.52971,1.1826 -1.31981,2.3972 -0.79009,1.2146 -1.43661,2.2933 -1.43661,2.3968 0,0.1036 0.65484,2.0211 1.45521,4.2612 0.80036,2.2401 1.45521,4.163403 1.45521,4.273703 0,0.2828 -0.2176,0.2367 -1.75855,-0.3711 l -1.36168,-0.5369 -0.82113,-2.590503 c -0.45168,-1.4248 -0.82114,-2.7331 -0.82114,-2.9074 0,-0.1743 -0.14883,-0.2679 -0.33073,-0.2077 -0.22275,0.074 -0.35606,0.8647 -0.40773,2.4221 -0.0559,1.6834 -0.16378,2.276 -0.39687,2.1787 -0.17609,-0.073 -0.76637,-0.2794 -1.31207,-0.4574 l -0.99219,-0.3235 v -6.8326 z m -82.32882,2.9301 c 1.51515,0.0028 2.0916,1.0704 1.91048,3.2711 -0.0757,0.9195 -0.85128,2.5358 -1.45831,3.0396 -0.38122,0.3164 -0.36321,0.3808 0.17932,0.6501 0.44804,0.2225 0.70917,0.738 1.01957,2.0123 0.22951,0.9423 0.498,2.0347 0.59686,2.4277 0.16491,0.6555 0.0774,0.76 -1.06453,1.265103 -0.68456,0.3028 -1.38772,0.4958 -1.56218,0.4289 -0.17447,-0.067 -0.46795,-0.965003 -0.65216,-1.995803 -0.35199,-1.9697 -0.69369,-2.5141 -1.40611,-2.2407 -0.35825,0.1375 -0.43016,0.6147 -0.43098,2.8484 l -10e-4,2.684103 -1.12654,0.463 c -0.61945,0.2547 -1.2738,0.4631 -1.45418,0.4631 -0.25215,0 -0.32763,-1.5332 -0.32763,-6.632203 v -6.6316 l 1.9973,-0.923 c 1.62397,-0.7503 2.87104,-1.1318 3.78013,-1.1301 z m 91.32466,0.7291 0.59531,0.1835 c 0.32742,0.1011 0.91137,0.3444 1.29811,0.541 l 0.70332,0.3576 0.0904,5.1113 c 0.0777,4.3863 0.15839,5.2149 0.56896,5.841003 0.58396,0.8905 1.21512,1.1684 1.52859,0.6734 0.1286,-0.2031 0.236,-2.601403 0.23823,-5.329903 0.003,-3.7934 0.082,-4.9597 0.33486,-4.9553 0.1819,0 0.83674,0.2355 1.45521,0.5163 l 1.12448,0.5105 v 4.5258 c 0,2.4893 -0.13143,5.047503 -0.29197,5.685003 -0.42849,1.7017 -1.4713,2.4247 -2.8851,2.0004 -2.15948,-0.6482 -3.73004,-2.1973 -4.35219,-4.292303 -0.30499,-1.027 -0.40824,-2.6386 -0.40824,-6.3717 z m -92.98916,1.8878 c -1.039,0 -1.20251,0.2919 -1.20251,2.1445 0,1.0031 0.10051,1.8242 0.22376,1.8242 0.12326,0 0.46751,-0.2114 0.76481,-0.4692 1.1185,-0.9701 1.27307,-3.4995 0.21394,-3.4995 z m -6.29574,0.5348 c 0.25605,0 0.33073,1.511 0.33073,6.7123 v 6.717903 l -1.12448,0.4548 c -0.61846,0.2501 -1.27331,0.5137 -1.45521,0.586 -0.25144,0.1001 -0.33073,-0.5094 -0.33073,-2.5425 0,-1.4478 -0.0632,-2.637 -0.14004,-2.6738 -9.2e-4,-3e-4 -0.002,0 -0.003,0 -0.0786,0 -0.61434,0.2404 -1.19062,0.5344 l -1.04749,0.5343 v 2.7823 2.7822 l -1.21284,0.5199 c -0.6669,0.2859 -1.26223,0.5199 -1.32292,0.5199 -0.0607,0 -0.11007,-3.0408 -0.11007,-6.7567 v -6.756203 l 1.21233,-0.5199 c 0.66691,-0.2858 1.26222,-0.5193 1.32292,-0.5193 0.0607,0 0.11058,1.1406 0.11058,2.5352 0,1.3945 0.0893,2.4957 0.19844,2.4464 0.10914,-0.049 0.64492,-0.2619 1.19063,-0.4723 l 0.99218,-0.3824 v -2.7379 -2.7378 l 1.12448,-0.5105 c 0.61847,-0.2808 1.27331,-0.5131 1.45521,-0.5163 z m 109.07448,2.1151 1.12448,0.4346 c 0.61846,0.239 1.24354,0.5405 1.38906,0.6703 0.14552,0.1297 0.93948,2.2251 1.76475,4.6565 l 1.50069,4.421003 0.0207,-3.870103 0.0207,-3.87 1.19062,0.4284 1.19063,0.4284 v 6.815003 c 0,3.7483 -0.0893,6.8063 -0.19844,6.796 -0.10914,-0.01 -0.68781,-0.2365 -1.28623,-0.5028 -1.19758,-0.5329 -1.31876,-0.7888 -3.3879,-7.151 l -0.90382,-2.778103 0.15037,4.034903 c 0.0827,2.2192 0.0942,4.0349 0.0253,4.0349 -0.0689,0 -0.68247,-0.1902 -1.36323,-0.4222 l -1.23765,-0.4217 v -6.851803 z m -118.53333,2.311 v 1.202 1.202 l -1.71979,0.5726 -1.7198,0.572 v 1.301203 c 0,0.7157 0.10378,1.3018 0.231,1.3018 0.12723,0 0.73783,-0.1786 1.3565,-0.3969 1.56258,-0.5513 1.5875,-0.5394 1.5875,0.7715 v 1.1684 l -1.52135,0.5064 -1.52135,0.506 -0.0791,1.6324 c -0.0433,0.898 0.0162,1.6325 0.13229,1.6325 0.11608,-1e-4 0.83747,-0.2382 1.60301,-0.5292 0.76555,-0.291 1.51618,-0.5286 1.66811,-0.5286 0.16399,0 0.24373,0.5016 0.19585,1.2345 l -0.0806,1.2346 -3.03392,1.0144 c -1.66866,0.5579 -3.12717,1.0144 -3.24115,1.0144 -0.11397,0 -0.20722,-3.0198 -0.20722,-6.7107 v -6.710703 l 2.3151,-0.8258 c 1.27331,-0.4541 2.70206,-0.902 3.175,-0.9953 z m 131.09277,2.4789 c 0.7997,-0.0086 1.68413,0.1623 2.54403,0.5323 1.29248,0.556 1.30892,0.5778 1.14153,1.5213 -0.23216,1.308703 -0.40592,1.428003 -1.37666,0.943703 -1.17158,-0.5845 -2.27694,-0.4196 -2.38693,0.356 -0.0643,0.4534 0.35869,1.0553 1.6738,2.3813 2.05427,2.0714 2.49321,2.8098 2.67529,4.5005 0.17791,1.6519 -0.52478,2.8177 -1.93425,3.2091 -1.25883,0.3496 -1.49868,0.3381 -3.0949,-0.152 -1.98301,-0.6088 -2.56671,-1.0768 -2.38229,-1.9099 0.37706,-1.7033 0.36592,-1.688 0.98857,-1.2832 0.87064,0.5661 2.42543,1.0156 2.89285,0.8362 1.15161,-0.4419 0.77841,-1.4142 -1.4366,-3.7414 -2.16272,-2.2722 -2.76941,-3.9423 -2.08566,-5.740703 0.35177,-0.9253 1.44839,-1.4388 2.78122,-1.4532 z m -142.58923,0.7622 c 0.0656,0 0.11937,2.502203 0.11937,5.560903 v 5.5615 l 0.72761,-0.1628 c 0.40018,-0.09 1.14431,-0.2699 1.65364,-0.4005 1.33483,-0.3423 1.32292,-0.3509 1.32292,0.9322 0,0.8872 -0.11274,1.2072 -0.46302,1.3131 -0.8093,0.2447 -5.45123,1.2186 -5.80843,1.2186 -0.27211,0 -0.34313,-1.3921 -0.34313,-6.7252 v -6.724703 l 1.33583,-0.2868 c 0.73477,-0.1575 1.38961,-0.2863 1.45521,-0.2863 z m -97.91133,0.3323 c 0.43871,-0.011 5.16195,2.111203 5.16195,2.332703 0,0.1201 -0.94508,2.2387 -2.10013,4.7082 -1.15505,2.4695 -2.13731,4.6809 -2.18281,4.914 -0.0599,0.3071 0.56719,0.7127 2.27893,1.4738 1.29911,0.5777 2.39416,1.018 2.43345,0.9787 0.11497,-0.115 3.84,-7.9338 4.09122,-8.5876 0.12581,-0.3274 0.35959,-0.5953 0.51986,-0.5953 0.62048,0 4.74907,1.9313 4.74907,2.2216 0,0.1687 -0.42896,1.1963 -0.95292,2.2836 -0.52396,1.0873 -1.47188,3.1425 -2.10633,4.5671 -1.15022,2.5827 -1.15161,2.5907 -0.56844,2.8164 0.32167,0.1245 1.5568,0.6558 2.74454,1.1803 1.18774,0.5245 2.23386,0.9539 2.32492,0.9539 0.0911,0 0.79926,-1.3492 1.57406,-2.9982 1.46759,-3.1234 3.39,-7.1149 3.5109,-7.29 0.0818,-0.1185 4.62042,1.7874 4.92218,2.067 0.11237,0.1041 -0.71495,2.086 -1.83865,4.4039 -1.1237,2.3178 -2.77216,5.9928 -3.66282,8.1669 -0.89067,2.1741 -1.7297,3.985 -1.865,4.0241 -0.13531,0.039 -0.62507,-0.0934 -1.08831,-0.2951 -3.29763,-1.4319 -25.10907,-11.0969 -25.19484,-11.1642 -0.0591,-0.046 0.11096,-0.5913 0.37775,-1.2113 1.21413,-2.8212 1.43565,-3.3406 2.06861,-4.8529 0.67905,-1.6224 4.60566,-9.921103 4.77387,-10.089303 0.005,-0.0049 0.0148,-0.0079 0.0289,-0.0083 z m 245.37933,0.03 3.12074,0.4677 c 5.35186,0.802203 4.84105,0.5794 4.84105,2.108403 v 1.327 l -1.19062,-0.1783 -1.19063,-0.1788 v 5.454 c 0,5.5163 -0.0198,5.6299 -0.92604,5.3226 -0.14552,-0.049 -0.71107,-0.1646 -1.25677,-0.2558 l -0.99219,-0.1658 v -5.4069 c 0,-6.0091 0.16487,-5.4586 -1.71979,-5.7397 -0.43632,-0.065 -0.54318,-0.314 -0.60772,-1.417 z m -91.84349,7.759703 1.25626,0.1721 c 0.69083,0.095 1.47748,0.1726 1.74821,0.1726 0.4627,0 0.49248,0.3023 0.49248,5.039 0,4.9603 0.01,5.0491 0.632,5.6715 0.76765,0.7676 1.67631,0.6276 2.03398,-0.3132 0.13436,-0.3534 0.24443,-2.7779 0.24443,-5.3878 v -4.7449 h 0.72761 c 0.40018,0 1.18884,0.0788 1.75286,0.1721 l 1.02578,0.1695 -0.11679,5.0767 c -0.12969,5.659 -0.30503,6.2973 -2.05414,7.476 -1.02948,0.6938 -2.98492,0.787 -4.57905,0.2181 v 0.003 c -1.30408,-0.4653 -1.70737,-0.823 -2.38745,-2.1177 -0.50942,-0.9698 -0.57577,-1.5962 -0.67076,-6.3418 z m 28.84579,0.6217 c 1.15155,0.0223 2.20697,0.1158 2.61327,0.2697 1.94698,0.7377 2.97936,2.6338 2.98794,5.4876 0.003,1.0633 -0.12564,2.4553 -0.28629,3.0933 -0.35389,1.4055 -1.78084,3.1396 -3.16415,3.8453 -0.99454,0.5074 -3.75405,1.0339 -5.47305,1.0443 l -0.8599,0.0104 v -6.7174 -6.7118 l 0.99219,-0.1643 c 0.79108,-0.1308 2.03843,-0.1794 3.18999,-0.1571 z m -16.61759,0.2253 1.49396,0.0791 c 0.98313,0.052 1.57216,0.2152 1.72341,0.4764 0.12642,0.2182 1.004,2.0043 1.94975,3.9688 l 1.71928,3.5719 -0.17002,-4.0349 -0.17001,-4.0349 h 1.6216 1.62161 v 6.7468 6.7469 h -1.60455 -1.60456 l -1.82521,-3.7703 -1.82573,-3.7703 -0.01,3.7703 -0.0103,3.7703 h -1.45521 -1.45521 l 10e-4,-6.7598 z m 180.07376,1.1545 c 0.2278,0.2278 2.49148,5.8366 2.39469,5.9334 -0.0673,0.067 -23.56189,9.7667 -26.27179,10.8459 -0.16718,0.067 -0.39066,-0.019 -0.49661,-0.1907 -0.10595,-0.1714 -0.69989,-1.5731 -1.31981,-3.115 l -1.12706,-2.8035 12.207,-4.9961 c 13.09852,-5.3609 14.41562,-5.872 14.61358,-5.674 z m -163.77967,0.7219 c -0.64774,0.0154 -0.68368,1.0186 -0.68368,4.624 v 4.3744 h 0.64234 c 0.35341,0 0.83248,-0.1901 1.06454,-0.4222 1.00197,-1.002 1.32568,-2.0639 1.33066,-4.3651 0.006,-2.5756 -0.33361,-3.4816 -1.48104,-3.9569 -0.37311,-0.1545 -0.6569,-0.2594 -0.87282,-0.2542 z m -13.55576,3.4887 c -0.055,0.005 -0.0925,0.0844 -0.0925,0.218 0,0.194 0.0792,0.2732 0.17622,0.1762 0.097,-0.097 0.097,-0.2559 0,-0.3529 -0.0303,-0.0303 -0.0587,-0.0436 -0.0837,-0.0413 z m -179.25262,11.9233 2.82308,0.7446 c 1.55282,0.4096 2.85413,0.7824 2.89181,0.8284 0.0377,0.046 -0.39186,1.572 -0.95446,3.391 -0.56261,1.819 -0.9923,3.4737 -0.95498,3.6773 0.0462,0.2523 3.50218,1.2695 10.84585,3.1931 5.92793,1.5527 10.83155,2.8765 10.89649,2.9414 0.19886,0.1988 -1.50493,6.3278 -1.75906,6.3278 -0.13086,0 -4.99648,-1.2501 -10.81226,-2.7781 -5.81577,-1.5279 -10.67958,-2.7782 -10.80865,-2.7782 -0.21148,0 -0.79452,2.1751 -1.61385,6.0193 -0.16283,0.764 -0.37576,1.37810002 -0.47284,1.36480002 -0.0971,-0.013 -1.30731,-0.3185 -2.68976,-0.67850002 -1.38245,-0.36 -2.61957,-0.7584 -2.74867,-0.8853 -0.42307,-0.416 3.63748,-16.9112 5.08858,-20.6716 z m 363.23881,1.8939 c 0.20907,0.2091 1.92339,6.2397 1.92339,6.766 0,0.5915 -9.40767,9.5563 -13.28652,12.6612 -1.5594,1.24830002 -2.80443,2.30070002 -2.76676,2.33840002 0.0377,0.038 1.01611,-0.2349 2.17403,-0.6051 2.57634,-0.82380002 15.3419,-4.06750002 16.00729,-4.06750002 0.36844,0 0.54288,0.3225 0.74982,1.3886 0.14829,0.764 0.40525,2.0834 0.57103,2.93160002 0.16579,0.8483 0.26097,1.57469998 0.21187,1.61429998 -0.12432,0.1003 -27.55764,6.7798 -27.81225,6.7717 -0.11371,0 -0.25561,-0.155 -0.31523,-0.3369 -0.0596,-0.1819 -0.36356,-1.7 -0.67541,-3.3735 l -0.56741,-3.0427 2.09031,-1.98489998 c 7.05814,-6.70180002 11.71784,-10.87050002 13.75782,-12.30820002 0.61536,-0.4337 1.12137,-0.869 1.12448,-0.9679 0.003,-0.099 -0.79798,0.0568 -1.78025,0.3457 -0.98226,0.2891 -5.34292,1.4249 -9.68985,2.5244 -5.80206,1.4675 -7.95526,1.9154 -8.09822,1.6841 -0.46999,-0.7605 -1.6554,-5.3426 -1.43505,-5.547 0.13147,-0.1219 4.70411,-1.3172 10.16114,-2.6561 15.63121,-3.8353 17.51533,-4.2766 17.65577,-4.1362 z m -79.12592,3.4039 -1.21337,0.9338 c -1.66582,1.2818 -5.05964,2.8382 -7.72407,3.5424 l -2.22054,0.5866 -35.45416,0.1679 c -38.65798,0.1828 -37.74367,0.1468 -44.31771,1.7477 -4.99164,1.2156 -9.62459,3.527 -11.61738,5.7966 l -0.81494,0.9286 -1.40766,-1.4072 c -2.3096,-2.3096 -6.6772,-4.3247 -11.9569,-5.5159 -6.20529,-1.4001 -5.38901,-1.371 -43.39166,-1.5441 l -35.45417,-0.1612 -2.53215,-0.693 c -2.86906,-0.785 -5.92868,-2.2263 -7.58816,-3.574 -0.61846,-0.5023 -1.12658,-0.816 -1.12862,-0.6971 -0.002,0.1189 -0.18319,2.5382 -0.40256,5.3759 -0.47296,6.1179 -0.53543,19.3104 -0.12144,25.615 0.36588,5.5718 1.14538,12.6794 2.00763,18.3053 0.65707,4.2873 2.67529,14.7404 2.92334,15.1418 0.0695,0.1124 44.64027,0.2046 99.04667,0.2046 93.98438,0 98.92751,-0.0234 99.0508,-0.4635 1.26996,-4.5314 3.44835,-17.8456 4.25349,-25.9954 1.0416,-10.5433 1.20836,-25.0017 0.39687,-34.4268 z m 64.51286,18.45160002 c -0.0728,0 -0.1323,0.059 -0.1323,0.1323 0,0.073 0.0595,0.1323 0.1323,0.1323 0.0728,0 0.13229,-0.06 0.13229,-0.1323 0,-0.073 -0.0595,-0.1323 -0.13229,-0.1323 z M -359.18439,1.660802 c 1.64498,0.0433 3.53847,0.4097 5.82445,1.1023 4.56197,1.3821 8.41005,1.4226 11.82511,0.125 0.92879,-0.353 1.31412,-0.4014 1.40044,-0.1757 0.0655,0.1712 0.0884,7.0377 0.0506,15.259 l -0.0687,14.948 -1.05833,0.3638 c -1.97759,0.6799 -4.77251,0.6418 -7.40834,-0.1008 -6.86587,-1.9346 -7.37582,-2.0365 -10.84791,-2.173 -2.01616,-0.079 -3.85019,-0.0212 -4.43178,0.1395 l -0.99218,0.2749 v -14.1459 -14.1464 l 1.37407,-0.6366 c 1.29135,-0.5983 2.68757,-0.8775 4.33256,-0.8341 z m -102.99268,0.009 c 1.63676,-0.0427 3.03317,0.2357 4.35063,0.8304 l 1.38907,0.6269 v 14.151 14.1516 l -0.85783,-0.2459 c -1.31308,-0.3766 -5.98081,-0.2931 -8.30699,0.1488 -1.14386,0.2172 -3.50872,0.8219 -5.25497,1.3436 -3.64293,1.0884 -6.67469,1.3707 -8.63204,0.8041 h -5.1e-4 c -0.67316,-0.195 -1.358,-0.4375 -1.52136,-0.5385 -0.21415,-0.1323 -0.29662,-4.4263 -0.29662,-15.3815 0,-8.3589 0.0298,-15.1976 0.0661,-15.1975 0.0364,1e-4 0.66538,0.228 1.39784,0.5064 3.46473,1.3169 7.28388,1.2833 11.87525,-0.1044 2.2778,-0.6885 4.15461,-1.0523 5.79138,-1.095 z m 88.60441,0.0708 c 1.71612,-0.0397 3.21204,0.2264 4.38681,0.8005 l 0.98754,0.4826 0.0682,14.2033 0.0682,14.2038 -0.86041,-0.247 c -1.31017,-0.3758 -5.7128,-0.2945 -8.04447,0.1483 -1.14387,0.2173 -3.47103,0.8047 -5.17126,1.3053 -3.78467,1.1143 -6.16757,1.3515 -8.11527,0.8082 -0.77947,-0.2175 -1.5236,-0.4611 -1.65364,-0.5415 -0.13442,-0.083 -0.23617,-6.6978 -0.23617,-15.3298 v -15.1836 l 1.43506,0.4935 c 3.6949,1.2712 7.16346,1.238 11.42927,-0.1096 2.0539,-0.6488 3.98999,-0.9943 5.70612,-1.034 z m -74.32518,0.0108 c 1.73245,0.0498 3.79206,0.4449 6.40994,1.1922 3.50011,0.9991 6.64275,1.1198 9.39271,0.3607 0.94589,-0.261 1.98854,-0.5341 2.31717,-0.6072 l 0.59738,-0.1328 -0.0682,15.1515 -0.0682,15.1526 -0.99529,0.3442 c -1.38739,0.4803 -3.78587,0.6434 -5.35471,0.3638 -0.72761,-0.1297 -2.4894,-0.5954 -3.91501,-1.0346 -4.07702,-1.2561 -6.7267,-1.6627 -10.0738,-1.5461 -1.61958,0.056 -3.15289,0.198 -3.40755,0.3147 -0.43785,0.2008 -0.46302,-0.5574 -0.46302,-13.9475 v -14.1599 l 1.18029,-0.5715 c 1.31048,-0.6344 2.71586,-0.9299 4.44831,-0.8801 z m -149.56452,6.4322 c 0.002,-2e-4 0.003,0 0.005,0 0.30983,0 4.72246,1.7268 4.92166,1.926 0.0937,0.094 -0.0855,0.7146 -0.39842,1.3803 -2.13309,4.5379 -1.60253,8.5994 1.12344,8.5994 0.36146,0 0.85976,-0.0778 1.10743,-0.1726 0.45526,-0.1747 3.03289,-3.9059 3.03289,-4.3904 0,-0.4897 1.81807,-3.2582 2.81172,-4.2814 2.95981,-3.0476 7.96418,-3.1521 11.20965,-0.2341 1.71817,1.5448 2.57985,3.3699 2.97139,6.2963 0.36529,2.7301 0.0363,5.5994 -0.98702,8.6082 -0.73972,2.1748 -1.3089,3.1773 -1.79059,3.1549 -0.17855,-0.01 -1.33655,-0.3774 -2.57348,-0.8206 -1.23693,-0.4432 -2.29383,-0.8482 -2.34818,-0.8997 -0.0543,-0.052 0.16894,-0.6046 0.49609,-1.2294 1.53294,-2.9274 2.19341,-6.6372 1.52084,-8.5442 -0.44394,-1.2587 -1.82092,-2.1657 -2.88303,-1.8991 -1.23976,0.3111 -1.99779,1.2057 -3.56102,4.2023 -2.77673,5.3227 -5.42325,7.3292 -9.2599,7.0213 -6.87246,-0.5517 -9.69435,-8.7381 -6.06423,-17.5927 0.24958,-0.6088 0.54615,-1.109 0.66559,-1.1245 z m 368.95681,6.4978 c 1.86601,0.0223 3.82536,0.61 4.9966,1.648 1.35197,1.1982 2.57363,3.1137 3.12487,4.8999 1.00354,3.2517 0.70103,10.4972 -0.45682,10.9415 -0.33631,0.129 -2.35863,-0.2068 -4.40232,-0.7307 l -0.97823,-0.2507 0.40566,-1.1182 c 0.55529,-1.5292 0.77397,-5.1549 0.3824,-6.3413 -0.47108,-1.4274 -1.42068,-2.3171 -2.47323,-2.3171 -1.54827,0 -2.28218,1.0425 -3.63079,5.1594 -1.8534,5.6579 -4.12705,7.8344 -8.33489,7.9793 -1.16596,0.04 -2.49344,-0.0417 -2.94969,-0.1824 -2.72526,-0.8401 -5.04408,-3.5908 -5.92212,-7.0239 -0.86669,-3.3888 -0.65077,-9.151 0.42168,-11.253 l 0.35192,-0.6904 2.56367,0.4857 c 1.41008,0.267 2.61089,0.5325 2.66857,0.5902 0.0577,0.058 -0.13738,0.9808 -0.43408,2.0515 -0.67519,2.4365 -0.73776,6.2225 -0.12403,7.5159 0.63176,1.3313 1.3349,1.8376 2.55127,1.8376 1.51387,0 2.49704,-1.2026 3.47937,-4.2566 1.54844,-4.8142 3.10061,-7.0909 5.69268,-8.3494 0.862,-0.4185 1.9479,-0.6087 3.06751,-0.5953 z m -344.08597,20.4892 h 0.71158 l 0.18862,5.7547 c 0.10371,3.1651 0.33479,7.2628 0.51315,9.1059 l 0.32401,3.35069 -1.99213,0.15968 c -1.09564,0.0876 -6.93271,0.45211 -12.97182,0.80977 -6.03912,0.35766 -11.59851,0.71253 -12.35376,0.7891 -0.75524,0.0766 -1.42712,0.05 -1.49345,-0.0594 -0.0663,-0.10939 -0.1984,-1.27001 -0.29301,-2.57969 -0.0946,-1.30969 -0.21958,-2.85752 -0.27802,-3.43962 -0.0584,-0.5821 -0.18695,-3.4003 -0.28577,-6.2626 l -0.17983,-5.2044 1.15807,-0.141 c 0.63689,-0.078 1.94487,-0.2007 2.9068,-0.2729 l 1.74924,-0.1312 0.19121,5.1821 c 0.10522,2.85 0.25349,5.3443 0.32969,5.5428 0.15239,0.3972 1.65999,0.4685 3.9858,0.1891 l 1.39062,-0.1669 -0.17415,-5.2162 -0.17415,-5.2168 2.61999,-0.1405 c 1.44111,-0.077 2.67696,-0.0883 2.74609,-0.0233 0.0691,0.065 0.21962,2.3949 0.33435,5.1775 0.11472,2.7826 0.23635,5.0828 0.27078,5.1118 0.0344,0.029 1.43226,-0.0219 3.10575,-0.1137 l 3.04271,-0.1664 -0.10025,-5.8451 -0.10077,-5.8456 2.05879,-0.1737 c 1.13214,-0.096 2.37844,-0.1741 2.76986,-0.1741 z m 346.94729,6.0467 1.21854,0.1452 c 0.67026,0.08 2.02272,0.222 3.00498,0.3152 2.09084,0.1983 1.90996,-0.4893 1.52445,5.7965 -0.30557,4.98257 -0.67844,8.96577 -1.20767,12.90726 -0.21072,1.56935 -0.38293,2.96834 -0.38293,3.10885 0,0.28362 -1.64865,0.28132 -4.17183,-0.005 -0.91183,-0.10368 -1.71441,-0.24525 -1.78387,-0.31471 -0.0695,-0.0695 0.10666,-1.77868 0.39119,-3.79822 0.28453,-2.01955 0.4918,-3.69455 0.46095,-3.72225 -0.0308,-0.0277 -5.15841,-0.50236 -11.39465,-1.05472 l -11.33885,-1.00459 0.17209,-2.52905 c 0.25076,-3.68891 0.33326,-3.98481 1.11052,-3.98481 0.36063,0 5.42883,0.4193 11.26288,0.9313 5.83406,0.5119 10.63936,0.8989 10.67842,0.8599 0.0391,-0.039 0.15774,-1.7769 0.26355,-3.8613 z m -185.03004,10.0934 c -78.17755,0 -97.84685,0.0666 -97.7589,0.33072 0.0606,0.1819 0.64882,2.23724 1.30742,4.56768 8.3669,29.60612 24.47647,58.493878 45.14763,80.958888 12.0143,13.05691 24.44954,23.81858 38.08501,32.95974 3.50912,2.35249 12.89939,8.1747 13.19455,8.1809 0.0538,0.001 1.5421,-0.85232 3.30729,-1.89601 15.4441,-9.13144 28.93385,-19.70003 41.87083,-32.8042 7.18236,-7.27518 12.63882,-13.50572 17.57309,-20.06647 0.93028,-1.23693 1.78941,-2.36803 1.90892,-2.51355 1.22216,-1.4882 8.12532,-11.7624 10.01283,-14.90245 10.06753,-16.748308 17.8524,-34.816398 22.56348,-52.367858 l 0.65681,-2.44739 z m -53.86338,2.91041 c 0.21381,0 0.69136,0.62508 1.06143,1.38906 2.46935,5.09775 1.84553,10.68125 -1.62212,14.51953 l -0.92708,1.0263 0.17725,3.10782 c 0.90499,15.8798 4.63391,29.271278 11.67061,41.910618 1.57425,2.82767 5.41872,8.81731 6.84868,10.67015 1.62503,2.10561 4.51912,5.59468 5.84512,7.04659 l 1.35754,1.4857 -0.2248,1.95389 c -0.12339,1.07452 -0.15295,2.57897 -0.0661,3.34295 0.0868,0.76399 0.10414,1.38906 0.0388,1.38906 -0.0654,0 -0.88267,-0.86321 -1.81643,-1.91823 -2.70206,-3.05299 -4.41904,-5.14883 -6.91844,-8.44548 l -2.33319,-3.07785 -2.04226,0.14004 c -1.13103,0.0775 -2.676,0.004 -3.46232,-0.16433 -3.78882,-0.81256 -7.31618,-3.59164 -9.11003,-7.17734 l -0.98031,-1.95957 0.60565,-0.25683 c 0.33317,-0.14116 1.79679,-0.25477 3.252,-0.2527 2.75164,0.004 5.19177,0.62033 6.25078,1.57872 0.25683,0.23243 -0.18231,-0.75071 -0.97565,-2.18488 -0.79334,-1.43417 -1.51184,-2.82455 -1.5968,-3.08973 -0.085,-0.26519 -0.31246,-0.42182 -0.5054,-0.34779 -0.19293,0.074 -1.16405,0.0199 -2.15852,-0.1204 -4.59725,-0.64841 -8.57347,-4.0493 -10.12755,-8.66252 -0.86139,-2.55699 -0.89344,-2.51067 1.63866,-2.37712 2.3489,0.12388 4.352,0.84594 6.14743,2.21537 0.48347,0.36877 0.8814,0.63433 0.91984,0.61702 h 5.2e-4 v -5.2e-4 h 5.1e-4 l 5.2e-4,-5.2e-4 v -5.1e-4 l 5.2e-4,-5.2e-4 v -5.2e-4 l 5.1e-4,-5.1e-4 c 1.4e-4,-6.8e-4 7e-5,-0.002 0,-0.003 -0.004,-0.0537 -0.52904,-1.52333 -1.16633,-3.26595 l -1.15911,-3.16828 -1.14876,-0.298688 c -2.9009,-0.75395 -5.84126,-2.92262 -7.50394,-5.53506 -1.19355,-1.87532 -1.97869,-4.34133 -1.97869,-6.21254 v -1.57975 l 0.8599,0.1633 c 2.55397,0.48552 5.28179,1.98573 6.93187,3.81217 0.78107,0.86455 0.92999,0.94682 0.82166,0.45216 -0.0728,-0.33225 -0.26597,-1.79472 -0.42892,-3.24993 -0.16294,-1.45521 -0.31503,-2.64787 -0.33796,-2.64996 -0.0229,-0.002 -0.90368,-0.57934 -1.9575,-1.28313 -3.68397,-2.46032 -5.80819,-5.53706 -6.45904,-9.35602 -0.37339,-2.19096 -0.11434,-4.83484 0.47336,-4.83484 0.67097,0 3.22848,1.36778 4.34547,2.32388 1.05169,0.90021 2.98772,3.51553 3.37292,4.55683 0.12966,0.35049 0.31397,-0.54077 0.52658,-2.543 0.32431,-3.05419 0.32114,-3.09767 -0.34882,-4.77231 -1.396,-3.48944 -1.2858,-7.37964 0.29973,-10.5885 0.95166,-1.926 3.11869,-4.32274 3.90829,-4.32274 z m 107.77791,0 c 0.73798,0 3.27271,2.91339 4.14342,4.7625 0.76689,1.62864 0.81016,1.8951 0.81597,5.02709 0.006,3.03583 -0.0553,3.45376 -0.73949,5.09219 l -0.74517,1.7849 0.32918,3.00137 0.32917,3.00137 0.62167,-1.24695 c 1.24627,-2.50093 5.55454,-6.07663 7.32152,-6.07663 0.91343,0 0.86347,4.21325 -0.0827,6.96339 -0.72282,2.10092 -1.18021,2.87326 -2.65514,4.48707 -0.98967,1.08285 -4.55095,3.83462 -5.22449,4.03696 -0.0317,0.01 -0.18151,1.14266 -0.33279,2.51768 -0.15129,1.37502 -0.34596,2.84158 -0.43305,3.25923 -0.15549,0.74563 -0.14089,0.74012 0.81442,-0.31729 1.72559,-1.91002 4.09568,-3.20222 7.08691,-3.86333 0.72296,-0.15979 0.7276,-0.15161 0.7276,1.2516 0,5.25324 -4.25198,10.58635 -9.525,11.94707 l -1.19062,0.307478 -1.11622,3.1595 c -0.61373,1.73785 -1.11974,3.1958 -1.12447,3.23959 -4e-5,3.4e-4 -1e-5,7.3e-4 0,0.001 v 5.1e-4 l 5.1e-4,5.2e-4 v 5.2e-4 l 5.2e-4,5.1e-4 5.2e-4,5.2e-4 5.1e-4,5.2e-4 h 5.2e-4 c 0.0351,0.0102 0.40701,-0.24369 0.8599,-0.58912 1.75816,-1.34101 3.88059,-2.10146 6.20685,-2.22415 2.53374,-0.13363 2.50033,-0.18209 1.63298,2.39262 -1.09388,3.24714 -3.71403,6.24301 -6.6673,7.62279 -1.55811,0.72795 -4.89418,1.42046 -5.57795,1.15807 -0.1806,-0.0693 -0.67332,0.58779 -1.15342,1.53841 -0.46086,0.91252 -1.21858,2.31418 -1.68413,3.11454 -0.58778,1.0105 -0.68792,1.31427 -0.32763,0.99425 1.04443,-0.92768 3.52906,-1.59724 6.03839,-1.62729 2.7308,-0.0327 3.83646,0.19773 3.83646,0.79943 0,0.90086 -1.79058,3.71087 -3.37189,5.29219 -2.75787,2.75786 -6.04319,3.99374 -9.91361,3.72845 l -2.06085,-0.14159 -1.91513,2.55488 c -2.06254,2.75182 -8.06477,10.01404 -8.73952,10.57403 -0.3679,0.30533 -0.41238,0.0455 -0.41703,-2.44998 -0.003,-1.53545 -0.0778,-3.02138 -0.16691,-3.30212 -0.12001,-0.37813 0.26254,-0.97836 1.47639,-2.31511 0.90119,-0.99243 2.30504,-2.63745 3.11971,-3.6561 0.81467,-1.01864 1.54153,-1.91162 1.61489,-1.98438 0.96887,-0.96102 5.72993,-8.15253 7.4445,-11.24479 3.03467,-5.47312 5.24153,-10.42744 6.96857,-15.64246 3.00422,-9.071608 4.4095,-16.601598 5.04104,-27.016428 l 0.17983,-2.97192 -1.11259,-1.26142 c -1.26305,-1.43216 -2.13909,-3.06167 -2.64119,-4.91236 -0.42879,-1.58047 -0.20623,-5.90711 0.38861,-7.55303 0.71956,-1.99105 1.45012,-3.21634 1.91771,-3.21634 z m -45.81064,1.62988 c 0.37972,-0.0101 0.81588,0.15382 1.25626,0.50022 2.32526,1.82905 2.80073,6.87103 0.55138,5.84616 -0.92379,-0.42091 -1.87917,-0.37971 -3.24011,0.14004 l -1.16168,0.4439 0.1111,1.47433 c 0.16068,2.1292 0.82284,3.26293 3.0732,5.26066 7.04991,6.2585 11.32353,11.23301 12.85606,14.9655 0.72047,1.75473 0.57466,2.401 -0.72554,3.22357 -1.03505,0.65482 -1.17616,0.8732 -1.46192,2.25671 -0.53518,2.59113 -2.1874,5.52097 -4.14755,7.35459 -0.94816,0.88696 -2.16777,1.84695 -2.70991,2.13321 l -0.98547,0.52038 6.81302,0.0119 c 3.74716,0.006 6.81224,0.101188 6.81147,0.210328 -7.8e-4,0.10914 -0.5674,1.21046 -1.25884,2.44739 l -1.25677,2.24896 -22.53971,0.0672 -22.53919,0.0677 -1.2051,-2.21072 c -0.66291,-1.21612 -1.20509,-2.34795 -1.20509,-2.51509 0,-0.22096 1.86437,-0.303858 6.83214,-0.303858 h 6.83266 l 0.29404,-1.58078 c 0.52634,-2.83023 2.50418,-5.98424 4.57181,-7.28948 1.58463,-1.00033 4.02766,-1.71307 5.87044,-1.71307 h 1.66398 l 0.69867,-1.15652 c 0.38418,-0.63605 1.09755,-1.45757 1.58543,-1.82521 1.05652,-0.79614 3.08563,-1.51619 4.27158,-1.51619 h 0.85266 l -1.87431,-1.94304 c -1.56829,-1.62524 -2.20585,-2.58916 -3.9026,-5.90144 -2.66216,-5.1969 -2.88231,-5.40151 -6.11281,-5.67408 -1.38411,-0.11678 -2.78856,-0.35538 -3.12074,-0.53071 -0.6977,-0.36824 -1.7942,-1.48035 -1.7942,-1.81953 0,-0.12713 -0.71438,0.077 -1.5875,0.45372 -0.87313,0.37674 -1.5875,0.80267 -1.5875,0.94671 0,0.14403 0.30203,0.90055 0.67127,1.68104 l 0.67128,1.41903 -0.5426,1.82056 -0.54209,1.82108 -1.74718,0.69918 -1.74769,0.6997 -1.77767,-0.69712 c -1.72932,-0.67848 -1.79725,-0.74156 -2.5244,-2.32647 -0.41106,-0.89596 -1.56202,-3.33539 -2.55746,-5.42086 -0.99545,-2.08547 -1.80971,-3.96382 -1.80971,-4.1739 0,-0.21009 0.32742,-0.50052 0.7276,-0.64544 0.40018,-0.14492 0.96573,-0.37653 1.25677,-0.5147 1.60892,-0.76381 5.48413,-2.38331 5.7025,-2.38331 0.18413,0 1.85595,3.08869 2.25619,4.16822 l 5.2e-4,5.1e-4 c 1.5e-4,2.7e-4 8.4e-4,0.001 0.001,0.002 l 0.002,0.002 c 0.0386,0.0229 0.38494,-0.10878 0.7922,-0.30179 0.4238,-0.20083 1.37091,-0.62756 2.10426,-0.94878 1.27829,-0.55991 1.3288,-0.62213 1.22629,-1.50016 -0.13473,-1.15411 0.45169,-1.8465 1.91512,-2.26188 0.59477,-0.16882 1.26694,-0.53321 1.49345,-0.80977 0.24357,-0.29739 0.89215,-0.56228 1.5875,-0.64802 0.64662,-0.0797 1.32958,-0.3391 1.51774,-0.57671 0.22389,-0.28273 0.7725,-0.43973 1.5875,-0.45424 0.68496,-0.0122 1.59226,-0.16584 2.01641,-0.34106 0.61625,-0.25458 0.98835,-0.24441 1.85209,0.0491 0.96821,0.32897 1.19972,0.31627 2.2195,-0.11782 1.353,-0.57594 1.68666,-0.89412 2.04277,-1.94924 0.19241,-0.57008 0.5877,-0.87071 1.0759,-0.88366 z m -168.36595,4.10517 0.49145,0.63821 c 0.5978,0.77644 1.65046,3.49701 2.20916,5.70921 2.60013,10.29538 -3.07496,18.05808 -13.68392,18.71772 -1.27576,0.0793 -2.83674,-0.001 -3.76617,-0.19482 -5.57813,-1.15967 -9.91872,-5.71101 -11.39828,-11.95224 -0.40555,-1.71072 -0.67917,-7.06586 -0.37568,-7.35201 0.0728,-0.0686 1.32292,-0.0654 2.77812,0.008 l 2.64584,0.13281 0.0176,2.41484 c 0.046,6.27171 3.22681,10.00019 8.56278,10.0366 3.01244,0.0206 5.33187,-0.82127 7.48688,-2.71818 2.92811,-2.57743 3.23587,-7.16685 0.80615,-12.01736 -0.75306,-1.50336 -0.87107,-1.36036 2.14303,-2.57969 z m 319.52055,7.01404 c 0.18374,-0.29729 2.1522,0.0909 19.68304,3.87987 4.62405,0.99942 8.45599,1.86621 8.51576,1.92598 0.0598,0.0598 -0.20047,1.50524 -0.57826,3.21221 -0.61268,2.76833 -0.74635,3.10143 -1.23972,3.0856 -0.30422,-0.01 -6.62513,-1.33022 -14.04669,-2.93471 -7.42157,-1.60449 -13.54067,-2.96286 -13.59762,-3.01842 -0.057,-0.0555 0.0892,-0.90747 0.32453,-1.89342 0.23541,-0.98594 0.5032,-2.28257 0.5948,-2.88096 0.0916,-0.5984 0.24624,-1.21771 0.34416,-1.37615 z m -206.64423,5.25085 c 0.62325,-0.009 0.62564,0.003 0.5209,2.57142 -0.0896,2.19542 -0.22588,2.83587 -0.91468,4.29948 -0.99125,2.1063 -1.82963,3.12565 -3.20755,3.8995 l -1.05472,0.59221 -0.1757,-1.25367 c -0.0967,-0.68955 -0.24401,-2.74195 -0.32711,-4.56096 l -0.1509,-3.30729 0.97152,-0.64234 c 1.11483,-0.737 3.41781,-1.58565 4.33824,-1.59835 z m 94.82263,0 c 0.89413,0.013 3.20835,0.87196 4.30723,1.59835 l 0.97152,0.64234 -0.17105,3.43958 c -0.0943,1.89177 -0.2552,3.95012 -0.3576,4.5744 l -0.18603,1.13481 -1.22732,-0.77928 c -2.42693,-1.54203 -3.93206,-4.79351 -3.93206,-8.49354 0,-2.02989 0.0267,-2.12491 0.59531,-2.11666 z m -200.95931,12.79486 c 0.12449,0.004 0.18876,0.16338 0.31781,0.50282 0.93575,2.46121 1.87327,5.33315 1.87327,5.73918 0,0.30855 -1.28954,1.46674 -3.57652,3.21221 -2.81179,2.14601 -3.695,2.97403 -4.1305,3.87366 l -0.55397,1.14464 0.59169,1.840188 c 0.32544,1.01211 0.63347,1.8402 0.68472,1.8402 0.0513,0 2.29752,-0.89296 4.99142,-1.98437 2.6939,-1.09141 4.98978,-1.984378 5.10202,-1.984378 0.23689,0 2.8472,5.772938 2.68407,5.936068 -0.21914,0.21913 -25.69048,10.4681 -26.01598,10.4681 -0.18461,0 -0.9346,-1.16086 -1.66708,-2.57969 -5.43698,-10.53157 -5.25823,-16.284808 0.59479,-19.118208 2.50829,-1.21424 6.26402,-0.62283 8.26461,1.30173 l 0.59532,0.57257 v -0.68213 c 0,-0.97103 0.88873,-2.5868 2.04793,-3.72225 0.54692,-0.53572 2.34847,-2.00051 4.00338,-3.25562 1.65491,-1.2551 3.29126,-2.50001 3.63647,-2.76623 0.28988,-0.22356 0.44671,-0.34177 0.55655,-0.33849 z m 307.84891,0.80306 c 0.0374,-0.0369 3.93774,1.2944 8.66717,2.95847 4.72943,1.66408 9.54546,3.35742 10.70271,3.76308 l 2.10426,0.73742 0.58085,-1.73529 c 0.31937,-0.95452 0.83874,-2.60835 1.15445,-3.67523 0.44213,-1.49408 0.66576,-1.90478 0.9741,-1.78645 0.22018,0.0845 1.31363,0.46651 2.42983,0.84852 3.2579,1.11498 3.08946,0.53467 1.58646,5.45238 -1.14965,3.76158 -3.37868,9.993978 -5.30097,14.821318 -0.37733,0.94755 -0.75524,1.51027 -1.00252,1.49345 -0.21828,-0.0148 -1.42916,-0.40157 -2.69079,-0.85938 -1.26163,-0.45781 -2.37811,-0.91677 -2.48099,-1.02009 -0.10288,-0.10333 0.29097,-1.35348 0.8754,-2.77813 1.46609,-3.57383 1.73771,-4.313188 1.62006,-4.414708 -0.056,-0.0483 -1.88774,-0.70638 -4.07055,-1.46245 -9.45029,-3.27335 -16.94815,-5.94248 -17.13333,-6.09885 -0.15582,-0.13157 1.69579,-5.95942 1.98386,-6.24406 z m -199.37904,1.2733 c 0.31119,0.0122 0.38971,0.31865 0.62115,1.43351 0.69512,3.34838 -0.25155,7.10533 -2.37143,9.41079 -1.16518,1.26719 -1.28467,1.33353 -1.53273,0.85576 -0.363,-0.69916 -2.18953,-7.03507 -2.18953,-7.59488 0,-1.06745 3.12019,-3.55272 5.06946,-4.038 0.16969,-0.0422 0.29935,-0.0712 0.40308,-0.0672 z m 90.1423,0.002 c 0.10272,-0.005 0.22939,0.0202 0.39377,0.0594 1.12821,0.26908 3.54514,1.86828 4.38785,2.90318 l 0.78135,0.95912 -1.12396,3.89278 c -0.61821,2.14087 -1.21853,3.98684 -1.33377,4.10208 -0.11525,0.11525 -0.71545,-0.33948 -1.33377,-1.01028 -0.61831,-0.67079 -1.41646,-1.88028 -1.77354,-2.68769 -0.8149,-1.84263 -1.10141,-4.9861 -0.63252,-6.94066 0.23521,-0.98043 0.32642,-1.2638 0.63459,-1.27796 z m -212.73999,12.39208 c -0.63671,-0.0236 -1.29425,0.12288 -1.91874,0.44132 -2.18334,1.113308 -2.56671,3.183188 -1.15032,6.209948 l 0.81597,1.7446 3.39876,-1.39526 c 3.03224,-1.24448 3.39147,-1.45928 3.33003,-1.99265 -0.12857,-1.11617 -1.7625,-3.8147 -2.68201,-4.42918 -0.54104,-0.361558 -1.15697,-0.555218 -1.79369,-0.578778 z m 208.10048,1.566308 c 0.98401,0 4.6583,3.42957 4.95939,4.62918 0.17525,0.69826 -2.88467,7.80624 -3.36052,7.80624 -0.10798,0 -0.54908,-0.42821 -0.9803,-0.95136 -1.09352,-1.32663 -1.90015,-3.94618 -1.90015,-6.17017 0,-1.77403 0.85368,-5.31389 1.28158,-5.31389 z m -81.00694,0.14366 c 0.47065,-0.0135 0.62835,0.63237 1.03921,2.46755 0.45538,2.0341 0.4001,4.31324 -0.14986,6.16655 -0.31774,1.07078 -1.82694,3.44024 -2.28203,3.58273 -0.15831,0.0496 -0.95925,-1.33994 -1.77974,-3.08767 -0.82049,-1.74772 -1.5679,-3.48044 -1.66088,-3.85093 -0.28486,-1.13497 1.58217,-3.51716 3.75481,-4.7904 0.4998,-0.29291 0.83196,-0.48074 1.07849,-0.48783 z m 191.48288,6.25078 c 2.9164,0.0947 6.3619,1.68822 13.91957,5.98 1.67349,0.95032 3.45943,1.95973 3.96875,2.24276 0.50932,0.28304 1.54813,0.86729 2.3089,1.29863 l 1.38338,0.78444 -1.45159,2.8944 c -0.79836,1.59189 -1.55496,2.8944 -1.68155,2.8944 -0.2379,0 -0.80484,-0.30811 -9.67848,-5.26221 -2.90541,-1.62207 -6.02119,-3.24474 -6.92413,-3.60598 -2.97097,-1.18857 -5.1735,-0.68828 -6.51123,1.47898 -1.06947,1.73265 -1.18794,2.85093 -0.46095,4.3527 0.87612,1.8098 2.58683,3.00522 10.80864,7.55096 4.02158,2.22349 7.45197,4.14856 7.62279,4.27778 0.22291,0.16862 -0.16223,0.99361 -1.36426,2.92282 -0.92115,1.47841 -1.77641,2.72188 -1.90014,2.76313 -0.12373,0.0412 -3.52328,-1.76185 -7.55509,-4.00699 -8.64082,-4.81169 -9.22051,-5.19269 -11.1554,-7.33081 -2.44644,-2.70341 -3.28169,-5.88341 -2.42362,-9.2258 1.26732,-4.93647 4.44373,-8.66459 8.2212,-9.6485 0.98726,-0.25715 1.90108,-0.39227 2.87321,-0.36071 z m -184.92204,4.71806 c 0.095,0 0.51817,0.762 0.94051,1.69344 1.37201,3.02592 1.59239,6.47331 0.601,9.39994 -0.43254,1.27688 -1.55652,3.19594 -1.86862,3.1905 -0.10731,-0.002 -0.68672,-0.746 -1.28778,-1.65364 -0.60107,-0.90763 -1.6495,-2.56904 -2.32957,-3.69177 l -1.2361,-2.04121 0.64492,-1.59681 c 0.76751,-1.90015 2.04432,-3.63416 3.38687,-4.5992 0.53665,-0.38575 1.05376,-0.70125 1.14877,-0.70125 z m 68.09197,0.0682 c 0.54186,0.006 2.86071,2.23668 3.58686,3.47576 0.3722,0.63512 0.81955,1.68931 0.99425,2.34249 0.29796,1.11405 0.27146,1.26731 -0.42995,2.47892 -1.35268,2.33661 -3.70542,5.91928 -3.88813,5.92057 -0.0986,6.9e-4 -0.42108,-0.30625 -0.71675,-0.68213 -2.22793,-2.83235 -2.37567,-8.95023 -0.30541,-12.66021 0.23816,-0.42679 0.55856,-0.81802 0.7121,-0.86919 0.0137,-0.005 0.0296,-0.006 0.047,-0.006 z m -180.71766,3.5817 c 2.01992,-0.0347 3.99137,0.3706 5.80843,1.23351 6.02632,2.86189 9.37778,10.18631 7.47707,16.34009 -2.22064,7.18958 -11.45205,12.47067 -18.6216,10.6531 -2.24937,-0.57025 -4.56987,-1.8987 -6.27714,-3.59306 -4.68493,-4.6495 -5.5619,-11.59357 -2.1208,-16.79381 1.35786,-2.05201 1.98154,-2.73569 3.71863,-4.07469 3.14752,-2.42619 6.64888,-3.70725 10.01541,-3.76514 z m 157.21521,0.45113 c 2.88262,0 3.13765,0.0449 4.85397,0.85783 3.16662,1.49976 5.7009,4.68124 6.69313,8.40259 2.27654,8.53813 -5.44249,21.08103 -19.26859,31.30972 -1.40917,1.04252 -2.65933,1.88917 -2.77812,1.88154 -0.1188,-0.008 -0.51029,-0.216 -0.86972,-0.46302 -10.4073,-7.15269 -17.90075,-15.87956 -20.62355,-24.01818 -1.41031,-4.21552 -1.30934,-7.57856 0.33849,-11.26494 0.96097,-2.1498 3.42477,-4.67801 5.64203,-5.78931 1.73612,-0.87014 1.91515,-0.90365 4.8581,-0.91003 3.00553,-0.007 3.08858,0.0104 5.07256,0.99013 2.15889,1.0665 4.02862,2.84874 5.01365,4.77955 l 0.53123,1.04128 0.78806,-1.37925 c 1.06948,-1.87259 2.77964,-3.44832 4.92012,-4.53305 1.72486,-0.87411 1.88929,-0.90486 4.82864,-0.90486 z m -155.6768,6.07354 c -2.76236,0.0864 -5.98852,1.56284 -8.59069,4.1243 -3.02063,2.97335 -3.63025,6.2767 -1.66605,9.02994 1.972,2.76416 5.64194,3.13223 9.98337,1.00149 3.21205,-1.57645 5.47472,-3.93137 6.42338,-6.68538 0.79262,-2.30103 -0.46867,-5.3479 -2.77295,-6.6983 -0.96182,-0.56366 -2.12144,-0.81131 -3.37706,-0.77205 z m 273.67632,12.04992 c 0.001,-1.6e-4 0.002,0 0.003,0 0.13563,0 2.48347,1.80347 5.21725,4.00802 13.48367,10.87334 12.50239,10.14357 12.89999,9.59063 2.03223,-2.82626 4.0841,-5.25875 4.41524,-5.23431 0.37171,0.0274 4.45657,3.20334 4.45657,3.46491 0,0.20838 -3.77684,5.21606 -6.44353,8.54366 -3.69101,4.60579 -7.08173,8.4683 -7.42384,8.45685 -0.15841,-0.005 -1.1808,-0.72928 -2.27221,-1.60869 -1.0914,-0.8794 -2.07829,-1.68882 -2.19263,-1.79885 -0.11433,-0.11003 0.58375,-1.0827 1.55132,-2.16163 0.96756,-1.07894 2.10185,-2.39414 2.52026,-2.9223 l 0.76068,-0.96015 -3.37034,-2.73213 c -1.85373,-1.50266 -4.56096,-3.69742 -6.01617,-4.87722 -2.02358,-1.6406 -7.56895,-6.07929 -8.30388,-6.64663 -0.16458,-0.12705 3.89974,-5.08344 4.19819,-5.12216 z m -250.39919,6.88175 c 0.28314,-0.003 4.87051,4.83041 4.87051,5.13147 0,0.24403 -6.48249,9.75933 -9.12244,13.39039 l -2.40761,3.31143 3.98942,-2.64945 c 2.19439,-1.45746 5.03956,-3.30481 6.32261,-4.10518 1.28305,-0.80036 2.70735,-1.69727 3.16467,-1.99264 3.16519,-2.04432 3.62646,-2.25888 4.11189,-1.91565 1.48884,1.05265 4.83591,4.4636 4.70773,4.79764 -0.13775,0.35897 -10.85943,17.44923 -13.84154,22.06326 -0.77593,1.20055 -1.50299,2.17998 -1.6154,2.17661 -0.1124,-0.003 -1.09709,-0.78342 -2.1885,-1.73323 -1.0914,-0.94982 -2.20273,-1.94192 -2.4691,-2.20503 -0.46857,-0.46285 -0.34219,-0.68117 3.87728,-6.71587 4.32598,-6.18703 5.35808,-7.6274 7.19233,-10.03608 0.94442,-1.24019 0.91863,-1.22755 -3.49384,1.73994 -2.44491,1.64426 -6.5582,4.33476 -9.14053,5.97845 l -4.69532,2.98845 -0.89504,-0.68317 c -0.49242,-0.37559 -1.58217,-1.46497 -2.42156,-2.42104 -1.71472,-1.9531 -1.71393,-1.91327 -0.0977,-4.10414 0.98941,-1.34117 1.63777,-2.27448 4.593,-6.61458 1.1395,-1.67349 2.50078,-3.59472 3.02514,-4.26899 0.52437,-0.67428 1.13202,-1.4916 1.3503,-1.81643 0.21828,-0.32483 0.60524,-0.86329 0.8599,-1.19682 0.25466,-0.33353 0.46302,-0.67441 0.46302,-0.75706 0,-0.0827 -1.27874,0.76 -2.84117,1.87223 -3.8457,2.73757 -13.79986,9.34207 -14.08028,9.34207 -0.30061,0 -4.24656,-4.55485 -4.24005,-4.89428 0.003,-0.14587 2.47334,-1.68294 5.4901,-3.41581 3.01676,-1.73287 6.19932,-3.58969 7.07244,-4.12585 0.87313,-0.53616 2.12327,-1.27712 2.77812,-1.64692 0.65484,-0.3698 3.0361,-1.7564 5.29167,-3.08147 2.25558,-1.32508 4.23091,-2.41071 4.38991,-2.41225 z m 237.25012,7.85171 1.61696,1.69499 c 0.88943,0.93237 2.86674,3.06194 4.39404,4.73253 1.52731,1.6706 3.55101,3.87768 4.49689,4.90409 0.94589,1.02641 3.38391,3.69696 5.41827,5.93504 l 3.699,4.06952 -2.77296,2.62464 c -2.66652,2.52404 -9.60376,8.64239 -10.20971,9.00462 -0.16437,0.0983 -1.12391,-0.68097 -2.18281,-1.77302 -1.03923,-1.07176 -1.88929,-2.06618 -1.88929,-2.20968 0,-0.1435 0.53266,-0.69781 1.1839,-1.23145 0.65123,-0.53364 1.33708,-1.11318 1.52446,-1.28829 0.18738,-0.17512 1.28791,-1.15176 2.44533,-2.17041 1.15743,-1.01865 2.30796,-2.05135 2.55643,-2.29495 0.42472,-0.41639 0.34381,-0.5614 -1.34669,-2.41588 l -1.79834,-1.97249 -3.01015,2.63343 c -1.65571,1.44833 -3.44199,2.97999 -3.96978,3.40393 l -0.95963,0.77101 -1.76837,-1.86655 c -0.97259,-1.02647 -1.73137,-2.01403 -1.6862,-2.1947 0.0452,-0.18068 1.57044,-1.62824 3.38945,-3.21686 1.81901,-1.58862 3.50556,-3.06994 3.7481,-3.29178 0.40556,-0.37095 0.26741,-0.5893 -1.7198,-2.71973 l -2.16059,-2.31666 -4.22713,3.70572 c -2.32491,2.03806 -4.34897,3.70316 -4.49792,3.70055 -0.4619,-0.008 -3.94547,-4.00074 -3.653,-4.18683 0.28905,-0.18392 2.34194,-1.8431 2.83393,-2.2903 0.16009,-0.14552 1.36102,-1.21722 2.66857,-2.38125 1.30755,-1.16403 3.61501,-3.29587 5.12734,-4.73769 z m -240.71399,0.0832 c -0.0728,0 -0.13229,0.0595 -0.13229,0.13229 0,0.0728 0.0595,0.1323 0.13229,0.1323 0.0728,0 0.13229,-0.0595 0.13229,-0.1323 0,-0.0728 -0.0595,-0.13229 -0.13229,-0.13229 z m 42.73486,36.28771 c 1.64881,-0.027 2.91863,0.48919 4.05867,1.63091 2.17886,2.18206 2.32174,5.34876 0.34933,7.74164 -1.53654,1.86409 -4.41581,2.49273 -6.689,1.46038 -2.16392,-0.98272 -3.2799,-2.74637 -3.2799,-5.18366 0,-3.03167 1.96427,-5.31123 4.8302,-5.60483 0.25172,-0.0258 0.49516,-0.0406 0.7307,-0.0444 z m 164.57083,0 c 1.64882,-0.027 2.91863,0.48919 4.05867,1.63091 2.17886,2.18206 2.32174,5.34876 0.34933,7.74164 -1.53654,1.86409 -4.41579,2.49273 -6.68899,1.46038 -2.16391,-0.98272 -3.27991,-2.74637 -3.27991,-5.18366 0,-3.03167 1.96428,-5.31123 4.8302,-5.60483 0.25173,-0.0258 0.49516,-0.0406 0.7307,-0.0444 z m -37.88244,6.98459 c 0.12946,0.11424 1.08535,4.40313 1.09348,4.90616 0.005,0.33223 -1.08092,0.66132 -5.16403,1.56579 l -5.17074,1.14567 0.17828,1.87327 c 0.0981,1.03036 0.20631,1.90739 0.24081,1.94872 0.0345,0.0413 0.64442,-0.058 1.35496,-0.22066 2.0743,-0.47477 5.32718,-0.41161 6.98045,0.13539 2.4084,0.79686 3.78564,1.96692 4.76715,4.0504 2.86393,6.07934 -0.74533,12.23132 -8.33902,14.21309 -1.79807,0.46925 -5.8853,0.72154 -7.27605,0.44906 l -0.92604,-0.18138 -0.076,-2.5678 -0.0754,-2.56729 2.19728,0.15503 c 3.6629,0.2585 6.79372,-0.71738 8.00055,-2.49339 1.23815,-1.82211 0.70341,-4.26713 -1.16272,-5.31595 -1.37462,-0.77258 -4.43874,-0.7807 -7.32049,-0.0196 -3.08507,0.81479 -2.85562,0.91534 -3.07991,-1.34617 -0.10824,-1.09141 -0.4258,-4.3061 -0.7059,-7.14375 -0.28009,-2.83766 -0.43073,-5.23705 -0.33435,-5.33146 0.20019,-0.1961 14.67967,-3.3769 14.8177,-3.25509 z m -80.76251,1.5322 c 0.6783,0.0144 1.29613,0.13359 2.24689,0.3266 1.29671,0.26324 2.47669,0.55198 2.62206,0.64182 0.16368,0.10116 -0.89413,5.2179 -2.77812,13.43845 -1.6733,7.30122 -3.04219,13.33662 -3.04219,13.41211 0,0.21382 -0.4615,0.14009 -3.41788,-0.54622 -1.51596,-0.35193 -2.80233,-0.68618 -2.85874,-0.74259 -0.0564,-0.0564 0.96866,-4.78569 2.27789,-10.50996 1.30924,-5.72428 2.34382,-10.44455 2.29909,-10.48928 -0.0447,-0.0447 -1.16776,0.16056 -2.49546,0.4563 -1.3277,0.29574 -2.53897,0.53796 -2.6913,0.53796 -0.17901,0 -0.24997,-0.90381 -0.20103,-2.5554 l 0.076,-2.5554 2.24896,-0.47646 c 3.28538,-0.69574 4.58337,-0.96195 5.71386,-0.93793 z m 56.19864,2.74299 v 1.72547 c 0,0.94905 0.0733,2.09214 0.16278,2.5399 0.18268,0.9134 0.37516,0.82467 -2.96365,1.36322 -3.37904,0.54503 -6.11575,2.286 -7.2378,4.60386 -0.7723,1.59535 -0.68167,1.82877 0.42013,1.08107 2.097,-1.42306 5.43513,-1.83776 8.03569,-0.99787 1.83239,0.5918 3.95605,2.53198 4.78885,4.37492 0.54102,1.19726 0.62987,1.8062 0.62994,4.30517 8e-5,2.64328 -0.067,3.04668 -0.73122,4.39869 -0.90556,1.84326 -2.90494,3.74961 -4.89945,4.67155 -1.26184,0.58327 -1.95164,0.71163 -4.1584,0.77153 -1.84839,0.0502 -3.04082,-0.0536 -3.95531,-0.34416 -4.67237,-1.48488 -7.30977,-5.88782 -7.30912,-12.20029 4.8e-4,-4.72333 1.34649,-8.42017 4.12068,-11.31817 2.64348,-2.76145 6.46624,-4.40662 11.17865,-4.81056 z m -33.76642,0.40307 c 3.46249,0.15289 5.38278,0.85031 7.05539,2.56264 2.09938,2.14921 2.60644,5.15581 1.30121,7.71426 -0.52104,1.02134 -2.03818,2.4863 -3.05408,2.94917 -0.61062,0.27822 -0.60557,0.2901 0.48989,1.08365 2.12463,1.53907 3.10388,3.32833 3.10162,5.66891 -0.004,3.86644 -1.97143,6.53823 -5.7273,7.7773 -1.82718,0.60279 -6.13993,0.647 -8.22792,0.0848 -5.20542,-1.40169 -7.85336,-5.32923 -6.56962,-9.74514 0.52748,-1.81447 1.76567,-3.27631 3.52226,-4.15995 0.69379,-0.349 1.30151,-0.65551 1.35083,-0.68058 h 5.1e-4 l 5.2e-4,-5.2e-4 5.2e-4,-5.2e-4 5.1e-4,-5.1e-4 h 5.2e-4 v -5.2e-4 l 5.2e-4,-5.2e-4 c 0.0226,-0.0466 -0.40193,-0.48409 -0.96377,-0.99167 -3.20463,-2.89519 -2.729,-8.29418 0.94465,-10.72751 1.93179,-1.27956 3.65951,-1.67075 6.77374,-1.53324 z m -0.64285,4.43746 c -0.89584,0 -1.2638,0.16516 -1.99781,0.89917 -1.64287,1.64287 -1.01737,3.88196 1.44797,5.18469 1.17197,0.61928 0.98026,0.60231 1.83296,0.15865 1.79508,-0.93398 2.53202,-2.74642 1.81488,-4.46278 -0.47734,-1.14242 -1.58696,-1.77973 -3.098,-1.77973 z m 27.47894,9.94926 c -0.13418,0.004 -0.26189,0.0157 -0.3793,0.0367 -1.02397,0.18271 -2.38511,1.23402 -2.90835,2.24586 -1.12194,2.16959 0.79832,6.2988 3.20652,6.89519 0.795,0.19688 2.03051,-0.0821 2.81378,-0.63562 1.97067,-1.39246 2.01121,-5.98749 0.0677,-7.68377 -0.58469,-0.51029 -1.86107,-0.88487 -2.80035,-0.85835 z m -28.67112,1.79731 c -0.54454,0.004 -1.07448,0.23983 -1.73116,0.70745 -2.35976,1.68029 -1.97557,5.30319 0.68782,6.48694 0.91233,0.40549 1.3241,0.43954 2.49597,0.20516 v -5.2e-4 c 0.4635,-0.0927 1.17858,-0.5042 1.58905,-0.91467 1.66107,-1.66106 1.1007,-4.3205 -1.2237,-5.80585 -0.71423,-0.45642 -1.27343,-0.68296 -1.81798,-0.67851 z" /></g></svg>
